<svg width="32" height="32" viewBox="0 0 32 32" fill="none" xmlns="http://www.w3.org/2000/svg">
  <defs>
    <linearGradient id="sGradient" x1="0%" y1="0%" x2="100%" y2="100%">
      <stop offset="0%" style="stop-color:#1CB5E0;stop-opacity:1" />
      <stop offset="30%" style="stop-color:#2563EB;stop-opacity:1" />
      <stop offset="70%" style="stop-color:#4338CA;stop-opacity:1" />
      <stop offset="100%" style="stop-color:#7C3AED;stop-opacity:1" />
    </linearGradient>
  </defs>
  
  <!-- S Letter -->
  <path d="M10 6 C10 4 12 4 14 4 L22 4 C24 4 24 6 24 6 C24 8 22 8 22 8 L16 8 C14 8 14 10 14 10 C14 12 16 12 16 12 L22 12 C24 12 24 14 24 14 C24 16 22 16 22 16 L14 16 C12 16 12 18 12 18 C12 20 14 20 14 20 L22 20 C24 20 24 22 24 22 C24 24 22 24 22 24 L14 24 C12 24 10 22 10 22 L10 6 Z" 
        fill="url(#sGradient)"/>
  
  <!-- White sections -->
  <ellipse cx="19" cy="10" rx="4" ry="2" fill="white" opacity="0.9"/>
  <ellipse cx="18" cy="18" rx="4" ry="2" fill="white" opacity="0.9"/>
  
  <!-- Shoe -->
  <path d="M14 9 C15 8 17 8 19 9 C20 10 20 11 19 12 L17 13 C16 13 15 13 14 12 C13 11 13 10 14 9" 
        fill="white" stroke="#2563EB" stroke-width="0.5"/>
</svg>